<?xml version="1.0" encoding="iso-8859-1"?>
<!-- Generator: Adobe Illustrator 19.0.0, SVG Export Plug-In . SVG Version: 6.00 Build 0)  -->
<svg version="1.1" id="Capa_1" xmlns="http://www.w3.org/2000/svg" xmlns:xlink="http://www.w3.org/1999/xlink" x="0px" y="0px"
	 viewBox="0 0 512 512" style="enable-background:new 0 0 512 512;" xml:space="preserve">
<g>
	<g>
		<path d="M412.66,180H512V30H409.832C394.414,24.01,330.75,0,300.937,0H197c-32.873,0-64.275,15.701-84,42l-72.015,96.017
			C27.12,156.505,29.137,183.732,48,199.339c17.077,14.129,44.081,15.492,61.932-3.671l44.087-47.328
			c4.968,15.974,18.618,28.149,35.403,31.009c-22.343,9.115-37.797,31.667-37.797,58.719c0,24.955,13.83,44.628,35.817,65.402
			c-2.029-0.06-3.867-0.084-5.442-0.084c-14.476,0-50.212,1.82-69.366,18.675L101.34,332H0v150h104.168
			c15.418,5.99,79.082,30,108.896,30H317c32.873,0,64.275-15.701,84-42l72.015-96.017C488.16,353.79,484.242,323.547,461,309.06
			c-17.014-10.605-40.739-10.112-56.932,7.271l-44.087,47.328C354.283,345.34,337.171,332,317,332h-24.002
			C333.381,298.947,362,273.974,362,238.068c0-11.275-2.693-21.765-7.44-30.833c15.836-1.965,34.656-6.603,46.807-17.295L412.66,180
			z M422,60h60v90h-60V60z M92,452H30v-90h62V452z M317,362.001c8.271-0.001,15,6.728,15,14.999s-6.729,15-15,15h-77v30h87.054
			c12.444,0,24.445-5.222,32.928-14.328l66.038-70.892c6.036-6.478,15.3-5.942,20.981-0.974c2.999,2.623,5,6.481,5,11.194
			c0,3.273-1.032,6.379-2.985,8.983L377,452c-14.089,18.785-36.519,30-60,30H213.063c-19.538,0-65.995-15.901-91.063-25.306V353.781
			l10.452-9.198c6.128-5.393,24.247-11.197,49.548-11.197s43.42,5.804,49.548,11.197c5.623,4.948,11.951,8.914,18.725,11.806
			l6.54,5.45l2.706-2.255c5.885,1.586,11.994,2.417,18.187,2.417H317z M268.301,313.441c-3.748,3.062-7.566,6.18-11.488,9.404
			c-3.922-3.224-7.74-6.342-11.488-9.404c-38.358-31.328-63.699-52.024-63.699-75.374c0-16.03,10.547-33.068,30.094-33.068
			c21.313,0,29.436,18.431,30.848,22.125l0.003,0.007c2.286,5.974,7.877,9.833,14.243,9.833c6.365,0,11.956-3.86,14.245-9.84
			c1.311-3.43,8.412-19.548,26.472-21.844c5.915,1.225,11.744,2.014,17.069,2.514c11.375,5.479,17.401,18.16,17.401,30.272
			C332,261.417,306.659,282.114,268.301,313.441z M236.26,180h0.035c9.485,0,18.633,3.382,25.844,9.523
			c-1.891,1.607-3.676,3.292-5.328,5.051C251.293,188.698,244.427,183.548,236.26,180z M392,158.219l-10.452,9.198
			c-6.128,5.393-24.247,11.197-49.548,11.197c-3.731,0-7.302-0.129-10.706-0.362c-7.024-2.435-13.914-3.402-21.211-3.203
			c-8.483-2.127-14.562-4.931-17.631-7.632C269.688,156.186,253.297,150,236.295,150H197c-8.271,0-15-6.729-15-15s6.729-15,15-15h77
			V90h-87.054c-12.444,0-24.445,5.222-32.928,14.328L87.98,175.22c-5.693,6.111-14.259,5.98-19.98,1.776
			c-6.908-5.076-7.778-14.628-3.015-20.979L137,60c14.089-18.785,36.519-30,60-30h103.937c19.538,0,65.995,15.901,91.063,25.306
			V158.219z"/>
	</g>
</g>
<g>
</g>
<g>
</g>
<g>
</g>
<g>
</g>
<g>
</g>
<g>
</g>
<g>
</g>
<g>
</g>
<g>
</g>
<g>
</g>
<g>
</g>
<g>
</g>
<g>
</g>
<g>
</g>
<g>
</g>
</svg>
